<svg version="1.1" xmlns="http://www.w3.org/2000/svg" xmlns:xlink="http://www.w3.org/1999/xlink" x="0px" y="0px"
	 viewBox="0 0 495 213" xml:space="preserve" width="70px">
<path class="club-1" style="fill: {{ $color }}" d="M12.3,198.8c-0.2-0.4-0.4-0.9-0.5-1.3c-0.2-0.7-0.4-1.4-0.6-2.1c-0.1-0.6-0.3-1.3-0.4-1.9
	c0-0.2-0.1-0.4-0.1-0.6c0-0.4-0.1-0.9-0.1-1.3c0-0.7,0-1.3,0.1-1.9c0-0.4,0.1-0.8,0.2-1.2c0.1-0.2,0.1-0.4,0.2-0.6
	c0.3-0.9,0.8-1.6,1.4-2.2c0.2-0.1,0.3-0.2,0.5-0.3c0.1-0.1,0.2-0.1,0.4-0.2c0.2-0.1,0.3-0.1,0.5-0.2l97.3-22.6
	c0.3-0.1,0.6-0.1,1-0.1c0.1,0,0.1,0,0.2,0c0.3,0,0.6,0.1,0.9,0.2l0.2,0.1c0.2,0.1,0.4,0.2,0.6,0.3c0.1,0,0.1,0.1,0.2,0.1
	c0.2,0.1,0.4,0.3,0.6,0.5c0.1,0,0.1,0.1,0.2,0.1c0.2,0.2,0.3,0.3,0.4,0.5c0,0,0.1,0.1,0.1,0.1l0,0.1c0.1,0.2,0.3,0.4,0.4,0.6
	c0,0.1,0.1,0.1,0.1,0.2c0,0,0,0,0,0.1L402,99.3c0.1-0.4,0.3-0.7,0.5-1c0,0,0.4-1.3,2.1-1.7c0.5-0.1,0.7-0.2,0.8-0.2
	c-0.1,0-0.4,0.1-0.4,0.1c3.3-1,16.8-5,23.5-6.9c2.4-0.7,4.9-1.5,6.7-2.2c0.3-0.1,0.7-0.3,1-0.4c0.1-0.1,0.3-0.1,0.4-0.2
	c0.9-0.5,1.5-0.9,1.9-1.5c0-0.1,0.1-0.1,0.1-0.2c0.1-0.2,0.2-0.5,0.3-0.7c0-0.1,0-0.2,0.1-0.3c0-0.1,0-0.2,0-0.5c0-0.3,0-0.7,0-1.1
	c0-1.1,0-2.6,0.1-4.6c0-0.8,0-1.6,0-2.4l0-7c0-2.5,0-5.1,0-7.7c0-4.1,0-10.2,0.1-16c0-1.3,0-2.6,0.1-3.9c0.1-3.4,0.2-6.4,0.3-8.9
	c0.1-2.3,0.2-4.3,0.4-6c0.1-0.9,0.2-1.8,0.2-2.5c0.1-0.8,0.2-1.5,0.3-2.2c0.1-0.3,0.1-0.6,0.2-0.9c1.6-8.9,21.4-11.9,25.8-12.1
	c1.1,0,2.1-0.1,3.1,0c1.1,0,2.1,0.1,3.1,0.2c1.6,0.2,3.2,0.5,4.6,1c1,0.3,2,0.7,2.9,1.2l0.1,0.1c0.3,0.2,0.5,0.3,0.8,0.5
	c0.5,0.3,1,0.7,1.4,1.1c0.4,0.4,0.8,0.8,1.2,1.2c0.4,0.4,0.7,0.9,1.1,1.3c0.8,1.1,1.5,2.4,2,3.7c0.2,0.5,0.4,1.1,0.5,1.6
	c0.2,0.8,0.4,1.7,0.6,2.6c0.1,0.6,0.2,1.2,0.2,1.8c0,0.3,0.1,0.6,0.1,0.9c0.1,1.2,0.1,2.4,0.1,3.7c0,0.6,0,1.3-0.1,1.9
	c-0.1,1.2-0.2,2.6-0.4,3.9c0,0.3-0.1,0.7-0.1,1c-0.3,1.6-0.6,3.2-1,5c-0.4,1.9-0.9,3.9-1.5,5.9c-0.5,1.8-1.1,3.7-1.8,5.7
	c-1.7,5-3.4,9.5-4.9,13.1l-0.4,1.2c-0.2,0.5-0.4,1.1-0.6,1.5c-0.7,1.8-1.3,3.4-1.9,4.9c-1.7,4.2-3.2,7.5-4.8,10.4
	c-0.3,0.6-0.7,1.2-1,1.8c-0.7,1.2-1.4,2.3-2.1,3.4c-0.4,0.5-0.7,1.1-1.1,1.6c-0.7,1-1.5,2-2.3,2.9c-2.4,2.7-5,4.8-8.1,6.6
	c-0.9,0.5-2.2,1-4.1,1.6c-1.1,0.4-2.3,0.7-3.8,1.1c-0.5,0.1-1,0.3-1.5,0.4c-1.5,0.4-3.3,0.9-5.2,1.4c-0.6,0.2-1.3,0.3-2,0.5
	c-2,0.5-4.2,1-6.6,1.6c-7.9,1.8-17,3.8-19.6,4.4c-1.8,0.4-3.2,0.7-4.2,0.9l0,0l-0.6,0.1c-1,0.2-1.9,0-2.8-0.5
	c-0.4-0.2-0.7-0.5-1.1-0.9L118.8,176c-0.2,1.8-0.8,3.2-1.8,4c-0.5,0.4-1,0.6-1.5,0.8l-97.3,22.6c-0.2,0-0.4,0.1-0.6,0.1
	C16.2,203.6,14.1,202.9,12.3,198.8"/>
<path class="club-2" style="fill: {{ $color }}" d="M482.4,204.6c0.2-0.4,0.4-0.9,0.5-1.3c0.2-0.7,0.4-1.4,0.6-2.1c0.2-0.6,0.3-1.3,0.4-1.9c0-0.2,0.1-0.4,0.1-0.6
	c0-0.4,0.1-0.9,0.1-1.3c0-0.7,0-1.3,0-1.9c0-0.4-0.1-0.8-0.2-1.2c0-0.2-0.1-0.4-0.2-0.6c-0.3-0.9-0.8-1.6-1.4-2.2
	c-0.2-0.1-0.3-0.2-0.5-0.3c-0.1-0.1-0.3-0.1-0.4-0.2c-0.2-0.1-0.3-0.1-0.6-0.2l-97-23.6c-0.3-0.1-0.6-0.1-1-0.1c-0.1,0-0.1,0-0.2,0
	c-0.3,0-0.6,0.1-0.9,0.2l-0.2,0.1c-0.2,0.1-0.4,0.2-0.6,0.3c-0.1,0-0.1,0.1-0.2,0.1c-0.2,0.1-0.4,0.3-0.6,0.5
	c-0.1,0-0.1,0.1-0.2,0.1c-0.2,0.2-0.3,0.3-0.4,0.4c0,0-0.1,0.1-0.1,0.1l0,0.1c-0.1,0.2-0.3,0.4-0.4,0.6c-0.1,0.1-0.1,0.1-0.1,0.2
	c0,0,0,0,0,0.1L93.7,101.3c-0.1-0.4-0.3-0.7-0.5-1c0,0-0.4-1.3-2.1-1.7c-0.5-0.1-0.7-0.2-0.8-0.2c0.1,0,0.4,0.1,0.4,0.1
	c-3.3-1-16.7-5.1-23.4-7.2c-2.4-0.7-4.9-1.5-6.7-2.3c-0.3-0.1-0.7-0.3-1-0.4c-0.1-0.1-0.3-0.1-0.4-0.2c-0.9-0.5-1.5-1-1.9-1.5
	c0-0.1-0.1-0.1-0.1-0.2c-0.1-0.2-0.2-0.5-0.3-0.7c0-0.1-0.1-0.2-0.1-0.3c0-0.1,0-0.2,0-0.5c0-0.3,0-0.7,0-1.1c0-1.1,0-2.6,0-4.6
	c0-0.8,0-1.6,0-2.4l0.1-7c0-2.5,0.1-5.1,0.1-7.7c0-4.1,0.1-10.2,0.1-16c0-1.3,0-2.6,0-3.9c0-3.4-0.1-6.4-0.2-8.9
	c-0.1-2.3-0.2-4.3-0.3-6c-0.1-0.9-0.1-1.8-0.2-2.5c-0.1-0.8-0.2-1.5-0.3-2.2c-0.1-0.3-0.1-0.7-0.2-0.9C54.5,12.9,34.7,9.7,30.3,9.4
	c-1.1-0.1-2.1-0.1-3.1-0.1c-1.1,0-2.1,0.1-3.1,0.2c-1.6,0.2-3.2,0.5-4.6,0.9c-1,0.3-2,0.7-2.9,1.2l-0.1,0.1
	c-0.3,0.2-0.5,0.3-0.8,0.5c-0.5,0.3-1,0.7-1.4,1.1c-0.4,0.4-0.9,0.8-1.2,1.2c-0.4,0.4-0.7,0.9-1.1,1.3c-0.8,1.1-1.5,2.3-2,3.7
	c-0.2,0.5-0.4,1.1-0.6,1.6c-0.2,0.8-0.4,1.7-0.6,2.5c-0.1,0.6-0.2,1.2-0.2,1.8c0,0.3-0.1,0.6-0.1,0.9c-0.1,1.2-0.1,2.4-0.1,3.7
	c0,0.6,0,1.3,0.1,1.9c0.1,1.2,0.2,2.6,0.4,3.9c0,0.3,0.1,0.7,0.1,1c0.2,1.6,0.6,3.2,0.9,5c0.4,1.9,0.9,3.9,1.5,5.9
	c0.5,1.8,1.1,3.8,1.7,5.8c1.6,5,3.3,9.5,4.7,13.1l0.4,1.2c0.2,0.5,0.4,1.1,0.6,1.5c0.7,1.8,1.3,3.4,1.9,4.9
	c1.7,4.2,3.2,7.6,4.7,10.5c0.3,0.6,0.6,1.2,1,1.8c0.7,1.2,1.4,2.4,2,3.4c0.4,0.5,0.7,1.1,1.1,1.6c0.7,1,1.5,2,2.3,2.9
	c2.3,2.7,5,4.9,8,6.7c0.9,0.5,2.2,1,4.1,1.7c1.1,0.4,2.3,0.8,3.8,1.2c0.5,0.1,1,0.3,1.5,0.4c1.5,0.4,3.3,0.9,5.2,1.4
	c0.6,0.2,1.3,0.3,2,0.5c2,0.5,4.2,1.1,6.6,1.6c7.9,1.9,16.9,4,19.5,4.6c1.8,0.4,3.2,0.7,4.2,0.9l0,0l0.6,0.1c1,0.2,1.9,0,2.8-0.5
	c0.4-0.2,0.8-0.5,1.1-0.9l285,68.6c0.1,1.8,0.7,3.2,1.8,4.1c0.5,0.4,1,0.6,1.5,0.8l97,23.6c0.2,0,0.4,0.1,0.6,0.1
	C478.5,209.4,480.6,208.6,482.4,204.6"/>
</svg>
