<svg xmlns="http://www.w3.org/2000/svg" viewBox="0 0 21.09822 5.53744" style="display: block">

        <path d="M.56315,3.26528c-.0595,0-.1189.0006-.1783-.0005-.0154-.0003-.0378.0107-.0448-.0096a.219.219,0,0,1-.00269-.0667l.00519-.0086.0079-.0051c.0297-.0004.0595-.0003.0892-.0003.0258-.0312.0594-.0216.0908-.0225.0297-.0008.0595-.0001.0892-.0001.0132,0,.0264.0002.0396-.0002l.0083-.0042.0052-.0077L.66615,3.132c-.0162-.0015-.0326-.0006-.0486-.0034a.03357.03357,0,0,1-.02219-.0144c-.00631-.0118.00229-.0522.00809-.0509.02291.0051.0312-.0277.05091-.0243A.04634.04634,0,0,0,.705,3.014a.06667.06667,0,0,1,.0406-.0253.03465.03465,0,0,0,.0067-.0285c-.0137-.0199-.0277-.0398-.05589-.0362-.02041.0026-.02961-.0168-.01981-.0351.0064-.0122.0197-.0195.0173-.0374-.001-.0074.0013-.0155-.0004-.0225-.0069-.0283-.0429-.0354-.0405-.0721.0003-.0038-.0161-.0072-.0225-.0136a.08454.08454,0,0,0-.0713-.0231c-.00779.0004-.0227-.008-.0227-.0125a.05247.05247,0,0,0-.016-.0387l.0045-.0153a.26435.26435,0,0,1,.0351-.0398c.0195-.0162.01131-.0507.0344-.0633-.0239-.0119-.0135-.0489-.0349-.0629l-.0071-.0078a.06393.06393,0,0,1-.01809-.0485.04969.04969,0,0,0-.05161-.0506c-.0165-.0005-.033.0004-.0495-.0003a.01674.01674,0,0,1-.0167-.0211c.0007-.0067.0026-.0177.0061-.0191.03971-.0152.0788-.0567.1211-.0065.0187,0,.0394.0103.05361-.013.01249-.0205.03439-.0298.03859-.0616.0048-.0363.04741-.0314.0661-.0564.00031-.0004.0129.0164.02031.017a.73563.73563,0,0,0,.09849.0012c.0101-.0007.0113-.0122.0018-.022-.0207-.0213-.0106-.0503-.00829-.0743.00139-.0141.02039-.026.03139-.0389.0408.012.0574-.0266.0803-.0513l-.0034-.0149c-.0241.0042-.0334-.0192-.0481-.0325-.0071-.0064-.0175-.0156-.0241-.0137-.0316.0093-.0488-.0359-.0815-.0249-.0141.0048-.0213-.0262-.0411-.0219a.11148.11148,0,0,1-.03949,0C.67805,1.925.67445,1.916.67345,
        1.90288c-.0034-.0443-.0042-.0447-.0364-.0436-.0125.0004-.02869-.0015-.0369.0064-.0285.0273-.04979.0167-.0763-.0054-.0153-.0128-.0278.0112-.04.023-.0133.0129.001.0167.0046.0244.0028.0061.0082.0143.0066.019a.09719.09719,0,0,1-.0585.0667.12079.12079,0,0,0-.052.0227c-.0104.0091-.0329.0057-.0481.0008-.0267-.0086-.039.0233-.0614.0235-.0198.0002-.0396.0001-.0594.0001-.0066,0-.0149.0029-.0195-.0006a.47059.47059,0,0,1-.0374-.0336c.0134-.043-.0315-.0716-.0207-.1157.0059-.0241.0184-.0534.04-.053.027.0005.042-.0068.0445-.0395.0004-.0057.0122-.0103.01281-.0161.00469-.0465.02849-.0625.06669-.0597.0048.0004.0145-.0071.0145-.0112.001-.0453.0005-.0906.0004-.1359-.0247-.0153-.0187-.053-.04159-.0715-.02911-.0236-.01671-.0594-.01341-.0914.0006-.0058.0411-.0109.0463-.0056l.02111.0239c.01169.0134.02149.0318.03559.0386a.08272.08272,0,0,0,.046-.0019c.0026-.0005.00541-.0128.0049-.0192a.03941.03941,0,0,0-.0084-.0185c-.0389-.053-.04-.0607.0091-.102.01981-.0167.048-.0231.0605-.0495.0141-.0301.0449-.0264.0627-.0475.009-.0108.0201-.0198.0027-.0322-.0087-.0062-.0085-.0096-.0007-.0164a.09585.09585,0,0,0,.034-.0863.04907.04907,0,0,1,.0492-.0532.20374.20374,0,0,1,.04941.0009c.01449.0035.02729.0195.04149.0207a.86006.86006,0,0,0,.1089.0006c.0149-.0006.023.0087.03361.0177.012.0103.03159.0053.03289-.0058.0012-.0103.0042-.0222-.0062-.0308-.0181-.015-.0283-.0496-.0516-.0469-.0344.004-.0555-.0393-.0913-.0252-.0207.0082-.047-.0105-.0655.01-.0195.0214-.033.0152-.0485-.0045C.61865.96708.61785.968.62855.947c.0111-.0218.006-.0409-.0118-.0402-.025.0009-.0528-.01-.0722.0211-.002.0032-.0174-.0027-.0257-.0068C.51325.91838.508.90618.50455.90718c-.0357.0103-.0538-.0184-.0745-.0418C.41365.84678.39665.82868.38125.80908.36785.792.38675.76408.36705.74778c-.0165-.0136-.007-.0345-.0105-.0517S.33245.67128.33675.64858A.03726.03726,0,0,0,.325.60908a.07728.07728,0,0,1-.0278-.0778.22025.22025,0,0,0,.0001-.0452.23889.23889,0,0,1,.0413-.1278.42272.42272,0,0,1,.0646-.0829l.0083-.0038c.03091.005.0648-.0139.0924.0192a.01794.01794,0,0,0,.0303-.0113c.0023-.0357.0283-.0492.0461-.0684A.04357.04357,0,0,1,.625.20668a.04814.04814,0,0,1,.0291.0414c0,
        .0189.0012.0379-.0002.0567-.00249.0339.0331.0556.0217.0926l.0131.0158c.00871.0126.021.0136.0331.0186.014.0058.0231.026.0362.0369a.2008.2008,0,0,0,.03341.0168c.00559.0031.00969.0107.01529.0122.0215.0058.0442-.0087.0658.0108.0171.0153.0151.0397.0277.0554.0178.0222.0369.0432.0559.0642C.968.64138.98.63618.99075.61328c.0029-.0061.0023-.0158.0063-.0194.0335-.0301.0396-.0845.0766-.1116.0119-.0088.0142-.0114.0339.0022a.155.155,0,0,0,.10581.0368c.02289-.0025.04629.0009.06929-.0008.0248-.0019.0518.0109.0732-.0183.0058-.0078.0246-.0038.03751-.0039.04289-.0004.08579-.0005.12879,0a.07226.07226,0,0,0,.05321-.0191c.01259-.0111.03789-.0023.05739-.0044a.0197.0197,0,0,0,.0114-.0149c-.0015-.0328.0257-.0411.0383-.0615.0145-.0233.0407-.0344.04291-.071.00189-.03-.031-.04-.02281-.0693-.0251-.0172-.0177-.0455-.018-.0708-.0003-.024.0036-.0293.0196-.0293.1056-.0001.2113-.0002.317.0003a.02164.02164,0,0,1,.0165.0079c.01171.0183.01771.0057.0289-.0019a.03753.03753,0,0,1,.053.0045c.0143.0162.028.0173.04081-.0005.00959-.0134.01369-.001.02139.0025a.07045.07045,0,0,0,.0727.0019.0602.0602,0,0,1,.0344-.0152c.0727.0009.1453.0018.2179-.0003.027-.0008.0417.0313.0713.0248a.41926.41926,0,0,1,.089-.0014h.0792c.0264,0,.0529.0011.0792-.0004a.04477.04477,0,0,1,.03391.0171c.00579.0053.02119.0071.02559.0023a.11848.11848,0,0,1,.0746-.0398c.0291-.0029.0486-.0415.08081-.0246.01419-.04.05709-.0065.07579-.0384.0037-.0063.0175-.0066.0266-.0066.0628-.0006.1257.0031.1882-.002.02641-.0021.0383.0243.0612.0248.0217.0005.046-.0094.0633.018.00291.0046.021.0043.0253-.0009.0249-.0304.0542-.0205.08061-.0101.01169.0047.01769.0178.02869.0002.0095-.0152.025-.0085.0366-.0066.0109.0019.02171.0197.0306.0179.0104-.0022.0166-.0212.0324-.0193a.32684.32684,0,0,0,.0396.0004c.0495,0,.09911.0011.1486-.0005.0247-.0009.0517.0114.0733-.0179.0058-.0078.0245-.0041.0374-.0042.0759-.0003.1519.0011.22781-.0008a.06089.06089,0,0,1,.05889.0294c.0084.0132.0194.0209.0336.0164.0281-.0089.0477.0138.0713.0219.018.0062.028.0325.0511.0239.0193-.0072.0264.0195.0413.0218.0195.0029.0401-.0025.0593.0014.0272.0056.0499.0281.0812.023a.37307.37307,0,0,1,.089-.0005c.0246.002.0367-.0068.03531-.0361L4.744.18278c.0356.0067.0437-.0378.0715-.0497a.14537.14537,0,0,0,.0778-.0915C4.89945.02188,4.909.021,4.922.022a.03063.03063,0,0,0,.0342-.0148c.0055-.01.008-.0089.0147-.0007a.03764.03764,0,0,0,.0239.0147c.0429.0014.0859.0027.1287-.0001.0251-.0017.0337.0198.04691.0347.00559.0063.00239.0228.008.0295.02439.0294.04619.0658.09079.0506A.17183.17183,0,0,1,5.30855.135a.04592.04592,0,0,1,
        .0513.0229c.0291-.0023.0488.0369.0804.0241.0215.0354.055.0239.0812.0192.0302-.0053.0465.0215.0713.0249.0315.0044.0639-.0103.0951.0113a.31709.31709,0,0,0,.0741.0412c.0086.003.0159.0141.0242.0147a.45944.45944,0,0,1,.0789.0021.291.291,0,0,0,.07131.0234.11045.11045,0,0,1,.081.0477.03737.03737,0,0,0,.03309.0187c.0264-.0016.0528-.0005.0792-.0005.0319.0396.0735.0181.1108.0219.02.0021.0274.03.0513.0246A.31326.31326,0,0,1,6.361.43008a.50965.50965,0,0,1,.0593.0007c.0084.001.0165.0095.0238.016.0289.0257.0404-.0259.06931-.0193.02119.0048.03909.0522.06589.0125.0057-.0084.0097-.0107.01411-.0039A.03539.03539,0,0,0,6.627.45318c.1387-.0007.27741-.0013.4161.0003.0297.0003.0475-.0342.08131-.0252a.38679.38679,0,0,0,.09869.0018.77854.77854,0,0,1,.0891.0006c.0437.0051.0911-.0189.1311.0213.0056.0056.0193.0008.0292.0008q.2229,0,.4457-.0002c.0189,0,.0381.005.054-.0169.0059-.008.02421-.0054.0369-.0054.0991-.0004.1981-.0006.2972.0001.0218.0001.0449-.0077.0634.0181.0056.0078.0245.0041.0373.0041q.34185.0003.6836.0003c.0197,0,.0396.0026.0519-.0209a.0705.0705,0,0,0,.0141.0119c.0085.004.0194.0111.0263.0081a.10337.10337,0,0,1,.1147-.005l.0067.0033c.0224-.0335.0543-.0171.08211-.0197.02619-.0024.05279-.0005.07919-.0005.2576,0,.5151.0003.7727-.0005.0246,0,.0509.0102.0735-.0177.0078-.0098.0309-.0043.0471-.0044q.2526-.0003.5052-.0001c.0264,0,.0528.0005.0792-.0001.02211-.0006.0468.0079.0618-.0208a.06932.06932,0,0,0,.0141.0122c.0085.004.0237.011.0256.0079.01661-.0256.0393-.0221.0621-.022.142.0003.284.0018.426-.0009.0436-.0008.0901.0179.1314-.0203.01-.0092.03211-.0013.0486-.0013.1849,0,.3699.0018.5547-.0013.0501-.0008.1034.0216.1512-.0201.0105-.0091.0322-.0013.0487-.0013.132,0,.2642.0026.3962-.0013.05671-.0016.1159.0201.171-.0199.0141-.0102.03871-.0015.0586-.0015q.3417,0,.6835-.0002c.0221,0,.04461.0058.0628-.0199.0076-.0108.02281,0,.0333.0112.0059.0064.0233.0111.0252.0081.0164-.026.03931-.0221.0621-.022.1684.0002.3368.0016.50521-.0009.04359-.0006.09019.0179.13149-.0203.0099-.0092.032-.0014.04851-.0014.19149,0,.38309.0018.57459-.0012.05-.0008.1037.022.151-.0204.0082-.0074.0257-.0011.0389-.0011.1321,0,.2642.0029.3962-.0012.06-.0019.1229.0226.1808-.0202.0116-.0086.0323-.0012.0488-.0012.1288,0,.2576.001.3863-.0008.0309-.0004.066.0155.0916-.0202l.0092-.0017h.0891c.0298,0,.05951.0006.0892-.0002.0251-.0007.05331.0097.0711-.0224l.0891-.0001h.0793c.01981,0,.0397-.0013.0594.0005.0126.0011.0159-.0116.0241-.0159a.03675.03675,0,0,1,.0265-.0054c.0593.0232.0591.0234.1343.0024a.14363.14363,0,0,1,.0381-.0041c.13541-.0003.2708-.0001.4062-.0002a.06963.06963,0,0,1,.0535.0181c.0124.0112.03771.0045.0571.0045q.3567.0003.7133.0003c.0221,0,.046-.0068.0625.0204.0022.0036.0177-.001.0257-.0051.0083-.0043.0115-.0167.0242-.016.0296.0016.0594.0005.0891.0005a.49846.49846,0,0,1,.089.0011c.0345.0063.055-.0357.0914-.0254a.32892.32892,0,0,0,.0888.0016c.0497-.0413.10661-.0177.1602-.022a.15368.15368,0,0,1,.11041.0749.22253.22253,0,0,1,.005.0656c-.03381.0409-.01581.0916-.01951.1381a.49633.49633,0,0,0,.0002.0679.02264.02264,0,0,0,.0116.0151c.00571.0027.0132-.0004.0196.0008.0467.0087.0973-.02.1412.0215.0078.0074.0256.001.0388.001.1189,0,.2378-.0002.3567.0004.01541,0,.0313-.0056.0459.0102.025.027.0648.0253.0882.0566l.0101.0173c-.012.0369.027.0579.0209.093-.0031.0174.00531.0246.0215.0279.0111.0022.0207.0156.0303.0248a.12342.12342,0,0,1,.0071.0531l-.0068.0082c-.0117.0133-.023.0271-.0351.04-.017.0181-.0213-.018-.0271-.0122-.0137.0137-.031.0247-.031.0532.0001.0352-.0032.0355-.023.0357s-.03959.0001-.0595.0001c-.0697-.0003-.0527-.0045-.0554.0682-.0005.0144.0057.0219.0161.0221.04621.0009.0925.0004.1387.0004.067-.0427.1399-.0147.2097-.0227.0265.014.0347-.0314.0614-.0237a.16345.16345,0,0,0,
        .0592.0003c.005-.0004.0088-.0127.0143-.0143.0298-.0087.053-.0418.0882-.0305.01471.0046.0229-.0087.0334-.0175.0119-.0099.0317-.0044.0325.0069a.05161.05161,0,0,1-.00719.03c-.00981.014-.02061.0337-.03951.0255-.0273-.0117-.0353.0355-.0614.0234-.023-.0106-.0306.0246-.0512.0231-.0053-.0004-.0108.0061-.0165.0086-.0239.0103-.0128.0535-.0366.0571-.016.0023-.0335-.0165-.0512-.02a.22206.22206,0,0,0-.0593-.0002.01923.01923,0,0,0-.0127.0135.53657.53657,0,0,0-.0005.0566c.0002.013.0063.0209.01791.0198a.04447.04447,0,0,1,.05109.023.06558.06558,0,0,1,.0094.0291.01692.01692,0,0,1-.0208.0163.0689.0689,0,0,0-.0773.0331c-.0031.0055-.0106.0123-.0151.0115a.083.083,0,0,0-.0931.0448c-.0156-.001-.0317.0073-.0469-.0052-.0055-.0046-.0077-.0249-.0209-.0083a.51044.51044,0,0,1-.0422.0479c-.0066.0064-.0178.0134-.0249.0112-.0316-.0096-.0554.0138-.0805.0255a.13248.13248,0,0,0-.0483.029c-.0173.021-.0387.0065-.054.0163-.0136.0086-.0237.0236-.04149.023l-.007.0077c.00409.0043.00809.012.01249.0123.0197.0013.0396.0002.0594.0006.02311.0005.0237.0016.0258.0337.002.0293.0018.0321.0255.0334a.0731.0731,0,0,1,.04281.0201c.01179.0091.03279.002.04509.0107.0121.0085.0181.0179.029.0003.0057-.0091.0127-.0206.021-.0233a.175.175,0,0,1,.0464-.0045l.007.0076c-.0182.0199-.0296.0523-.0561.0567a.11919.11919,0,0,1-.0759-.0071c-.0203-.0118-.0321-.0216-.049.0011-.01049.0143-.0436-.0001-.03649.038.00069.0038-.00761.0138-.012.014a.7791.7791,0,0,1-.08911-.0001c-.008-.0006-.0148-.0135-.0233-.0169-.0081-.0031-.0215-.0056-.026-.0006-.0234.0257-.0451.0535-.0663.0817-.0025.0033.0003.0152.0038.0199a.02121.02121,0,0,0,.0168.0068.024.024,0,0,0,.0163-.0088c.0157-.021.0351-.013.05381-.0105l.00669.0078-.0052.0077-.0328.0163c.0092.0151.0231.01.0357.0107.00661.0004.0143.0027.01961-.0003.03029-.0172.04549.0207.07079.0257a.05041.05041,0,0,1,.0321.0607.08309.08309,0,0,0,.0239.0683c.0159.0212.04.0216.0557.0394.0167.0189.0371.0074.0557.0102.00981.0014.0214-.0034.0293.0011.0112.0064.0257.0172.0282.029.0052.0249-.01669.0098-.0244.0161-.0106.0088-.0177.0231-.0286.0312-.0321.024-.0188.0604-.0204.0924-.0002.0036.0094.0113.0145.0114.0495.0008.0991.0016.1486,0,.0233-.0007.0378.0039.0359.0355-.0004.005.0088.0104.0132.016.0079.0102.0088.0126.0278.0014.0222-.013.0446-.0047.0668-.0058.00291-.0002.0077.0108.0091.0174a.07369.07369,0,0,1,.0003.0225.04636.04636,0,0,0,.0262.0434c.013.009.01731-.0148.02731-.0212l.007-.0079c.00489-.0091.01049-.0113.01389-.0041.0244.0505.0664.0383.1048.0394l.00931.0008a.0977.0977,0,0,1,.009.0294.01936.01936,0,0,1-.01171.0144c-.0129.002-.02629-.0006-.0274.0215-.0007.0143.0005.0336-.0068.0412-.0075.0079-.02409.0044-.0368.0061-.0501.0067-.1039-.0178-.1502.0227-.03309,0-.06609.0003-.09909-.0002a.06825.06825,0,0,0-.05331.019.03693.03693,0,0,1-.0529-.0097.04076.04076,0,0,0-.0249-.0087c-.0146.0415-.0595.0046-.0761.039l-.0077.0057c-.0306.0071-.06609-.0175-.0924.0184-.0292.0015-.0585.0018-.0875.0048-.0471.0047-.0959-.0136-.1414.0208-.01379.0104-.03879.0003-.0584.0022a.04342.04342,0,0,0-.0248.0127c-.0162.0165-.0272.009-.04159-.0044-.01561-.0145-.02791-.0129-.03331-.0012a.03174.03174,0,0,0,.0075.0388.18632.18632,0,0,1,.0209.0241.06253.06253,0,0,1-.0049.0696.18171.18171,0,0,1-.06519.0395.089.089,0,0,0-.03031.0248.04839.04839,0,0,0-.00969.0287.01651.01651,0,0,0,.02059.0164.18657.18657,0,0,1,.0198-.0002c.0118-.0002.01761.0069.0181.0198.00051.0114.00051.0227.0001.0341-.0009.0231-.0317.1003-.0472.1001-.0379-.0003-.027.0443-.0475.0576l.0056.0146a.03143.03143,0,0,1,.0339.0168c.00461.0078.0075.0043.0143-.0025.0232-.0226.0436-.0177.0681.0041a.22908.22908,0,0,1,.0464.0811c.0142.0299.0215.0601.0567.0617.0732.0435.0732.0435.1328.0436.0264,0,.0529-.0006.0792.0006.0046.0002.0089.0077.0134.0119l-.007.008c-.0114.0128-.0205.0298-.0406.0252a.48274.48274,0,0,0-.0749.039c-.0109.0098-.013.0164-.0019.0315.0105.0144.0045.0343.0197.0484a.11419.11419,0,0,1,.0498.0777.24764.24764,0,0,0,.0681.0584.23229.23229,0,0,0,.10451.0414.08562.08562,0,0,1,.05729.0297c.0149.0163.0392.0077.0494.0305l.0135-.0045c.0085-.0038.01681-.0114.0253-.0116.0396-.0013.0794.0016.1188-.0013.03-.0022.0484.0339.0813.0248a.29739.29739,0,0,1,.079-.0014c.0297,0,.05941.0004.0891-.0001.0228-.0004.0345.0309.0614.0239a.22215.22215,0,0,1,.0691-.0005c.005.0004.0093.0097.0146.0138a.04042.04042,0,0,0,.0536.0001.05782.05782,0,0,1,.0939.0115c.0135.0193.0355.0145.04871.0313.01559.0201.03759.0124.05529.0095.02571-.0043.0406.0178.0614.0235.0211.0057.04531-.0096.0644.0147a.03613.03613,0,0,0,.0263.008c.043.0008.0859.0018.1288-.0002a.07878.07878,0,0,1,.0519.0221c.0295.0216.0312.0185.0147.0495a.04485.04485,0,0,0-.007.0192c.0003.0263.0235.0337.0344.0515a.03523.03523,0,0,0,.0334.0177c.01841.0002.0403-.0103.0539.0145.0042.0078.0184.0106.01151.0236-.00231.0045-.01111.0063-.017.0063-.066.0005-.13211,0-.19811.0005a.05194.05194,0,0,1-.044-.0169c-.0074-.008-.0298-.0113-.036-.0048-.02789.029-.0605.0186-.0918.0219-.0245.0026-.0422.0359-.071.0223a.065.065,0,0,1-.0612.0235c-.0221-.0004-.0506-.0132-.0654.0076-.0198.0279-.055-.0035-.0689.0309a.091.091,0,0,0-.055.04c-.0123.017-.0362.0108-.0482.0318a.04124.04124,0,0,1-.0402.0263c-.0065-.0007-.0175.0129-.0206.0224a.40364.40364,0,0,1-.10659.1417c-.01951.0218-.04961.0305-.06811.057-.0103.0147-.0117.0139.013.0269.01211.0064.0196.0277.0113.0356-.012.0115-.0191.0275-.03719.0338a.18457.18457,0,0,0-.09331.0708c-.009.0133-.0098.0135.0016.0388l.0066.0081c.0029.0177-.0003.0406.0083.0524a.93034.93034,0,0,0,.0835.0966c.0105.0109.0239.0049.0335-.008.0097-.0132.0229-.0165.0334-.0044a.05765.05765,0,0,0,.08.0081.06411.06411,0,0,1,.08841.0021.04.04,0,0,0,.01739.0064.17688.17688,0,0,1,.1115.0744l-.004.015c-.02689-.0038-.0423.033-.071.0247a.03413.03413,0,0,0-.0435.016c-.0039.0072-.0089.0051-.014-.0039a.0274.0274,0,0,0-.0348-.0122.19188.19188,0,0,1-.0911.0233.56276.56276,0,0,0-.0989-.0009c-.0094.0001-.02259-.0009-.0273.0053a.0482.0482,0,0,1-.0438.0176c-.0191.0002-.0442-.0043-.0558.0075-.0184.0186-.0425.0047-.0535.0164a.07323.07323,0,0,1-.0625.0212c-.0991-.0005-.1981.0002-.2972-.0006a.03845.03845,0,0,0-.0337.0171c-.0132.0168-.02779.0323-.04179.0483s-.02581.0383-.04271.0464a.11929.11929,0,0,1-.0587.0017c-.0295-.0027-.0477.034-.0813.0246a.333.333,0,0,0-.0888-.0016h-.0792a.85332.85332,0,0,1-.0891-.0008c-.02-.0021-.0273.0186-.0416.0225a.25242.25242,0,0,1-.0493.0012.04255.04255,0,0,1-.0434-.0183c-.00289-.0042-.0152-.0068-.0173-.0041-.0229.0295-.0533.0189-.0813.0231-.0144.0022-.0217.0236-.0415.0226-.0527-.0025-.1056-.0008-.1585-.0008-.0349-.0439-.08029-.0154-.1206-.0224-.0291-.005-.0479.0338-.0812.0238a.28073.28073,0,0,0-.0789-.0014c-.0298,0-.05959-.0018-.0891.0009-.0106.0009-.022.0196-.0302.0173-.0106-.003-.0171-.0206-.0327-.0184-.0502.0071-.1033-.0162-.1509.0218-.0089.0071-.0258.001-.039.001-.1024,0-.2048-.0002-.3071.0002-.0222.0001-.0449-.0056-.0628.0201-.0053.0076-.0253.0044-.0379.0017-.01189-.0026-.015-.0231-.0315-.0224-.0363.0015-.0726.0005-.109.0005-.0312.0437-.0737.0185-.1107.0215-.0559.0044-.1124-.0023-.1683.0022-.0469.0038-.0981-.0221-.14039.0216-.02321,0-.04631-.0011-.06941.0003-.0217.0014-.0442-.0076-.0639.0171-.0078.0099-.03069.0051-.0468.0051-.1485.0003-.2971-.0006-.4457.0009-.0277.0002-.0595-.0138-.0821.0193l-.0088.0026a.50531.50531,0,0,1-.1087-.0016c-.0388-.0085-.063.0337-.1012.0257a.4535.4535,0,0,0-.0989-.0012c-.0228.0003-.0458.004-.0617-.0224l-.0185.0003c-.0159.027-.03929.022-.0619.022-.0792-.0001-.1586-.0032-.2377.0011-.0469.0026-.0981-.0221-.1404.0215l-.1178-.003c-.0188-.0318-.048-.0135-.072-.0203-.0407-.0115-.0699.0326-.111.0247a.506.506,0,0,0-.1087-.0008c-.0051.0002-.0094.01-.015.0128-.0084.0043-.0226.012-.0256.0084-.0289-.0335-.0559-.0308-.0834.0009-.0363,0-.0727.0005-.109-.0002a.04584.04584,0,0,0-.04379.0173c-.00411.0054-.01811.005-.02591.0019-.0659-.0266-.0662-.0262-.1238.0033a.12629.12629,0,0,1-.0709.0246c-.0625-.0051-.12539-.0015-.1882-.0015h-.0891c-.0133.0422-.0582.0051-.0754.039-.0023.0044-.0112.0058-.0172.0061a.40784.40784,0,0,0-.04949.0007c-.04671.0077-.09811-.0215-.14041.0222-.0264,0-.0529-.0014-.0792.0004-.0248.0018-.051-.0102-.0736.0177-.0079.0097-.0309.0044-.047.0044-.1156.0003-.2312-.0007-.3467.0009-.0277.0004-.0594-.0139-.0822.0196-.0026.004-.0123.0015-.0186.0024-.0378.0058-.0766-.0108-.1141.0133-.0359.0231-.0769.0065-.1155.0088-.0395.0024-.0792.0006-.1188.0006h-.11889a.17321.17321,0,0,1-.02971-.0003c-.027-.0049-.0424.0294-.0712.0241a.49841.49841,0,0,0-.089-.0012h-.41609a.27352.27352,0,0,1-.07891-.0014c-.0362-.0111-.0569.031-.0913.0253a.6041.6041,0,0,0-.0989-.0012h-.2081c-.033,0-.066.001-.099-.0003-.0262-.001-.0405.0351-.0714.0244-.0212-.0073-.0492.0071-.06839-.0029a.538.538,0,0,0-.22031-.0211.0469.0469,0,0,0-.0524.0204l-.0181.0017c-.0323-.0409-.0741-.017-.11119-.0211-.02111-.0024-.03511.0313-.06121.022-.018-.0063-.0407.0103-.0557-.0098-.0195-.0262-.0237.0101-.0368.0096-.0197-.0008-.0396-.0003-.0594-.0002a.05506.05506,0,0,1-.0534-.0187.03342.03342,0,0,0-.0366-.0029c-.044.0415-.0946.0127-.1413.0213l-.0074-.0063c-.0094-.0163-.0169-.0156-.0286-.0007a.03253.03253,0,0,1-.0448.0044.06079.06079,0,0,0-.053-.02.58755.58755,0,0,0-.0594.0007c-.0501.0072-.1033-.0203-.1512.0209-.0106.009-.0326.004-.0486.0007-.0339-.0068-.0727.0197-.1023-.0189l-.0136.01c-.0085.0039-.0231.0118-.0254.0086a.0633.0633,0,0,0-.062-.0221c-.0495.0011-.0992.0026-.1485-.001-.0164-.0011-.0265.0444-.045.0065-.0192-.0017-.0383-.004-.0575-.005-.0165-.0009-.0331-.0002-.0496-.0002a.39081.39081,0,0,0-.0593.0006c-.0246.0038-.034-.0327-.0615-.0246a.24518.24518,0,0,1-.0691.0013c-.0289.0349-.0665.0188-.1007.0231a.042.042,0,0,1-.0418-.022c-.0182.0301-.0462.0171-.0705.0224-.0342.0074-.055-.0352-.0913-.025a.3373.3373,0,0,1-.0888.0015h-.2873c-.0297,0-.0595-.0005-.0892.0002a.05047.05047,0,0,1-.044-.0167.03413.03413,0,0,0-.03619-.005c-.04781.0376-.10081.0199-.151.0196-.02621-.0002-.05031-.0259-.081-.0216a.66191.66191,0,0,1-.08911.0009h-.1684c-.208,0-.4161.0007-.6241-.0008-.034-.0002-.0726.0179-.1011-.021a.98044.98044,0,0,0-.12829.0004c-.03451.0043-.05491-.0345-.09131-.0258a.47465.47465,0,0,1-.10869.0018h-.208c-.033,0-.06611-.0006-.09911.0002-.02889.0007-.0481-.0329-.0812-.0244a.36111.36111,0,0,1-.0889.0015c-.0564-.0445-.1199-.0168-.1801-.0215-.0321-.0024-.0556-.0328-.091-.0253a.4788.4788,0,0,1-.0988.0014h-.0991c-.0704-.0433-.1463-.0175-.2196-.0217-.0725-.0042-.1453-.0009-.2179-.0009-.076,0-.1519.0009-.2279-.0007a.04779.04779,0,0,0-.0417.0225c-.01069.0141-.0212.0263-.041.0242a.1951.1951,0,0,0-.0788.0009c-.0337.0108-.0515-.0278-.0814-.0248-.0262.0026-.0528.0005-.0792.0005h-.0891c-.0464-.0398-.10019-.0156-.1503-.0228-.0534-.0077-.1103.02-.1607-.0218-.0065-.0054-.0195.0006-.02919-.001-.02771-.0042-.05831.0123-.08271-.0194-.006-.0077-.0249-.0028-.0379-.0029-.033-.0003-.066-.0001-.0991-.0001-.0188-.0359-.0638-.0094-.0826-.0454-.0284.0119-.0484-.012-.0709-.0231-.0424-.0209-.042-.0221-.0712-.0222-.0363-.0001-.0728.0024-.1089-.0006-.0504-.0042-.1026.0153-.1513-.0205-.014-.0103-.0399.0032-.0582-.0027a.181.181,0,0,0-.0813-.0223.59766.59766,0,0,1-.0792.0007h-.0892a.11032.11032,0,0,0-.0394.0008c-.0324.0129-.05209-.0246-.08109-.0236-.02641.0008-.05291.0001-.07931.0001-.0312-.0438-.0738-.0147-.11069-.0223s-.07871.016-.11061-.023c-.0231,0-.0462.0003-.06939-.0001-.02941-.0005-.05881-.0015-.08831-.0023-.0222-.0335-.054-.0174-.0818-.0197-.0296-.0025-.0594-.0006-.0891-.0006-.0427-.041-.0936-.0149-.1404-.0228-.0276-.0046-.0598.014-.0817-.0208l-.0092-.0017a.60416.60416,0,0,0-.0989.0011c-.03159.0053-.04959-.0303-.0812-.025a.44783.44783,0,0,1-.0989.0006c-.0189-.0011-.0414.0116-.0561-.0079-.01639-.0218-.0361-.0123-.0546-.0139-.0196-.0018-.0393-.0011-.059-.0015-.0213-.0361-.0537-.0186-.0814-.0208-.0256-.0021-.0407-.0341-.07139-.0249a.28076.28076,0,0,1-.07891.0015c-.0264,0-.053-.002-.0792.0005-.0298.0029-.0484-.0335-.0813-.0245a.30548.30548,0,0,1-.0789.0013c-.02969,0-.0595-.0003-.0892.0001-.0227.0003-.03449-.0309-.0613-.0239a.28017.28017,0,0,1-.06919.0011c-.02451-.0377-.05991-.0199-.09081-.0221-.0329-.0024-.0661-.0005-.0991-.0005h-.099l-.0096.0002c-.0204.0432-.061.0092-.0883.0311-.03419.0274-.0746.0115-.1126.0109l-.0069-.0077a.07129.07129,0,0,0-.07669-.0349c-.023.0019-.04621.0004-.06941.0004h-.0792a.53634.53634,0,0,1-.0792-.0009.0967.0967,0,0,0-.0711.0235c-.076,0-.1519.0003-.2278-.0007-.0039,0-.0095-.0096-.0108-.0158-.0014-.0064-.0007-.0176.0029-.0204.0152-.0117.0357-.0121.04861-.0306.00259-.0037.01269.0003.01919-.0006.0404-.0061.085.0171.1206-.0226.0429,0,.0859.0016.1288-.0005.0375-.0017.0767.0125.1117-.0207.0098-.0093.0321-.0001.0484-.002.01031-.0012.0161-.01.0147-.0236-.0022-.0216-.0263-.0321-.02039-.0588.006-.0275-.01931-.0359-.02941-.0538-.0048-.0086-.0117-.0253-.009-.0284.0298-.0344.0156-.0771.019-.1162l-.0002-.0113a.22772.22772,0,0,0-.0126-.028c-.0083-.0151-.0237-.0221-.0279-.0437a.04974.04974,0,0,0-.0575-.0447c-.0215.0015-.0346-.029-.0613-.0231a.37845.37845,0,0,1-.079.0012l-.06909.0006c-.02481.0378-.06031.0188-.09121.0214a.70583.70583,0,0,1-.0884-.0017l-.0066-.0078.0044-.0076c.0144-.0065.03181-.006.04081-.0243.03029.0062.052-.0246.07979-.025a.04714.04714,0,0,0,.0413-.0233.04411.04411,0,0,0,.0064-.016L.762,4.24088c-.0561-.0004-.1123-.002-.1683.0005a.05482.05482,0,0,1-.0507-.0255.05346.05346,0,0,0-.0223-.02c-.021-.0069-.0549.0145-.0622-.0133-.0075-.0285-.0262-.0408-.0373-.0621-.0115-.0219-.0362-.0109-.0494-.0308-.0056-.0083-.0236-.0057-.036-.0078l-.0099-.0002a.4345.4345,0,0,1-.0832-.0437c-.0256-.012-.0592.0108-.0839-.014-.015-.0151-.0313-.0056-.0459-.0109-.0114-.0042-.0218-.0219-.0314-.0207-.0407.0051-.0558-.0329-.0787-.0569-.0039-.004-.00139-.0221.0033-.0294a.0596.0596,0,0,1,.0858-.0224c.0382.0275.0759.0098.1133.0159.0043.0008.01121-.0072.0147-.0129a.06079.06079,0,0,1,.0679-.0321.11587.11587,0,0,0,.0394-.0006c.004-.0007.0085-.0109.0094-.0173s-.00119-.0191-.0039-.0198c-.0449-.0119-.0671-.0565-.0959-.0899a.07251.07251,0,0,0-.0686-.0313c-.0287.0034-.0489-.0354-.0804-.0243l-.0069-.0076c.0042-.0043.0081-.012.01251-.0124.02589-.0022.052-.0026.078-.0037.01869-.0275.03369-.0217.05619-.0009.0121.0113.03781.0033.0573.004.0222-.0301.0526-.0223.081-.0225.0251-.0001.0533.0069.0539-.0381.0241-.0063.0418-.0302.06761-.0324l.007-.0077c-.00421-.0042-.008-.0104-.01291-.0122-.00609-.0021-.0133.0006-.0197-.0007-.0217-.0042-.0476.0134-.0648-.0115-.0168-.0241-.0464.0037-.0615-.0234a.02273.02273,0,0,0-.0158-.0098c-.0249-.0035-.0534.0099-.07129-.0225-.023-.0002-.04611-.0012-.06911-.0004-.0203.0008-.02789-.0323-.0513-.0231-.0193.0075-.0273-.016-.0415-.0217-.0117-.0046-.0298.0034-.0376-.0042a.10206.10206,0,0,0-.0416-.0236c-.0036-.0012-.0056-.012-.0068-.0187-.0025-.0141.0058-.0183.0157-.0226.0235-.01.0234-.0106.0083-.0287a.25093.25093,0,0,1-.0205-.0245l.0078-.0142.0095-.0005c.026-.0116.0387.0216.0612.0233.0187.0014.0392-.0092.0558.0098a.03386.03386,0,0,0,.0153.012c.0307.0065.0659-.015.0919.0202a.76326.76326,0,0,0,.09791.0021c.04259-.0043.07709.0394.12069.0235.0282.0388.0667.0174.1007.0227.0205-.0362.0539-.0154.0803-.0249.0148-.0054.0021-.0159-.0032-.0231l-.0066-.0078a.09316.09316,0,0,1,.0602-.0215.06667.06667,0,0,0,.0166.0088c.0097.0015.0245.0051.0287-.0005.01361-.0181.034-.0181.0488-.0305a.027.027,0,0,0,.0027-.0206c-.0014-.006-.0072-.0153-.0112-.0154C.70845,3.265.63575,3.26528.56315,3.26528ZM.93175.99708a.37158.37158,0,0,1,.0395.0003c.0164.0019.0194-.0195.0314-.0224.0126-.003.0263.0004.0388-.0025a.0084.0084,0,0,0,.0037-.0154c-.0122-.0111-.0203-.0254-.039-.0297a.08576.08576,0,0,1-.0549-.0352C.92945.85008.88455.87248.85945.83978c-.0113-.0147-.0259.0179-.0399.0201a.33047.33047,0,0,1-.0789.0006c-.0202-.0018-.0278.0154-.0402.0263-.0102.009-.0073.0207-.006.0308.0006.0046.0094.0101.015.0111C.734.933.76275.91708.781.94958A.10966.10966,0,0,1,.85125.974.109.109,0,0,0,.93175.99708ZM1.029.83838A.38116.38116,0,0,0,.98355.839l-.0099.0135.0066.0073a.053.053,0,0,1,.03411.0151.11738.11738,0,0,0,.057.0297c.02139.0019.03959.0058.04929.0265.0169.0359.0581.0049.075.0386.0021.0041.0118.0053.0174.0042S1.22736.96748,1.228.963a.12032.12032,0,0,0-.0004-.0444c-.0017-.0062-.01519-.0093-.0238-.0118-.0061-.0019-.0141.0021-.0193-.0008-.01909-.0107-.0374-.0233-.056-.0349C1.09545.85038,1.06305.82758,1.029.83838Zm.2031.2479a.53448.53448,0,0,0-.0554.0054c-.00329.0007-.0068.0117-.0069.0181s.0027.0176.0059.0185a.19686.19686,0,0,1,.0692.0253c.0166.0116.0443.0031.067.0019.0103-.0005.016-.0077.0163-.0215a.02114.02114,0,0,0-.0149-.0234C1.28415,1.09978,1.25765,1.07558,1.23205,1.08628Zm18.6601-.3054c.0028-.0232-.0044-.0322-.0194-.0336-.0123-.0011-.0175.0064-.01939.0178-.00291.0177.005.0293.01979.0273C19.88065.79138,19.88755.78388,19.89215.78088ZM.90775.78608C.90936.77838.90845.777.88865.75528L.882.74758c-.0033.0057-.0089.0111-.0095.0172-.0023.0235.0091.0343.0282.028Zm-.6729,2.6003a.01989.01989,0,0,0-.0327-.0004l-.0005.0075a.01969.01969,0,0,0,.0326.0005Zm17.5696,2.0751c.011-.0045.0258-.0197.0258-.0302s-.0156-.0219-.0258-.0309c-.0042-.0037-.0119-.0028-.01809-.003-.01291-.0004-.02581-.0002-.03871-.0001-.0346.0004-.0359.0031-.0347.0451.00041.0137.00541.0207.0153.0226a.26424.26424,0,0,0,.0397.0004A.09475.09475,0,0,0,17.80445,5.46148Zm2.3658-1.0849c.0006.0229.0006.0228.021.0101a.30243.30243,0,0,0,.0404-.0246.31922.31922,0,0,0,.0351-.0397l-.0023-.0077-.0076-.006c-.0321-.0139-.0517.0225-.07949.0272-.00431.0007-.00641.0186-.00711.021ZM.17865,1.54138a.01567.01567,0,0,0-.0192.0169.0367.0367,0,0,0,.0096.0271c.0062.0035.018-.0013.0254-.0062a.07887.07887,0,0,0,.0201-.0233l-.0073-.0138a.05011.05011,0,0,0-.019-.0006Zm20.5368,3.4708-.0067.0068-.0133.0156-.0066.0152c.0087.0024.0189.0092.02551.006.00619-.0029.00869-.0162.01219-.0236Zm-.1204-.2052.0076-.0144-.0065-.0073a.20628.20628,0,0,0-.0385.0003l-.0075.0143.0065.0073a.11178.11178,0,0,0,.0192.0004A.05115.05115,0,0,0,20.59505,4.807ZM.33065,4.19928.31715,4.184l-.0133-.0074a.08072.08072,0,0,0-.0056.0294c.0024.0124.0204.016.0317.0085l.0067-.0075Zm.2409-1.1235L.571,3.06838c-.0074-.0113-.0284-.0114-.0318.0008l.0129.0162Zm-.0521.2721c.0034.0123.0244.0121.0318.0008l.0005-.0074-.01939-.0095Zm-.0073,1.3836-.0005-.0073c-.0074-.0114-.0284-.0115-.0318.0007l.0129.0162ZM.44605,3.356l.0062-.0152-.0062-.0075-.0071.0146ZM.139,1.77958l-.0133-.0071-.0065.0071.0127.0081Zm.8323-.7822c.0164.0019.0194-.0195.0314-.0224.0126-.003.0263.0004.0388-.0025a.0084.0084,0,0,0,.0037-.0154c-.0122-.0111-.0203-.0254-.039-.0297a.08576.08576,0,0,1-.0549-.0352C.92945.85008.88455.87248.85945.83978c-.0113-.0147-.0259.0179-.0399.0201a.33047.33047,0,0,1-.0789.0006c-.0202-.0018-.0278.0154-.0402.0263-.0102.009-.0073.0207-.006.0308.0006.0046.0094.0101.015.0111C.734.933.76275.91708.781.94958A.10966.10966,0,0,1,.85125.974a.109.109,0,0,0,.0805.0231A.37158.37158,0,0,1,.97125.99738ZM.98355.839l-.0099.0135.0066.0073a.053.053,0,0,1,.03411.0151.11738.11738,0,0,0,.057.0297c.02139.0019.03959.0058.04929.0265.0169.0359.0581.0049.075.0386.0021.0041.0118.0053.0174.0042S1.22736.96748,1.228.963a.12032.12032,0,0,0-.0004-.0444c-.0017-.0062-.01519-.0093-.0238-.0118-.0061-.0019-.0141.0021-.0193-.0008-.01909-.0107-.0374-.0233-.056-.0349-.033-.0207-.0654-.0435-.0995-.0327A.38116.38116,0,0,0,.98355.839Zm.1931.2527c-.00329.0007-.0068.0117-.0069.0181s.0027.0176.0059.0185a.19686.19686,0,0,1,.0692.0253c.0166.0116.0443.0031.067.0019.0103-.0005.016-.0077.0163-.0215a.02114.02114,0,0,0-.0149-.0234c-.0291-.0108-.0556-.035-.0812-.0243A.53448.53448,0,0,0,1.17665,1.09168Zm18.6961-.3444c-.0123-.0011-.0175.0064-.01939.0178-.00291.0177.005.0293.01979.0273.0075-.001.0144-.0085.019-.0115C19.895.75768,19.88775.74868,19.87275.74728ZM.88865.75528.882.74758c-.0033.0057-.0089.0111-.0095.0172-.0023.0235.0091.0343.0282.028l.0071-.0067C.90936.77838.90845.777.88865.75528ZM.20215,3.386l-.0005.0075a.01969.01969,0,0,0,.0326.0005l.0006-.0076A.01989.01989,0,0,0,.20215,3.386Z"/>

</svg>